<?xml version="1.0" encoding="UTF-8"?>
<svg id="Capa_2" data-name="Capa 2" xmlns="http://www.w3.org/2000/svg" viewBox="0 0 569.98 166.5">
  <defs>
    <style>
      .cls-1 {
        fill: #fff;
        stroke-width: 0px;
      }
    </style>
  </defs>
  <g id="Capa_1-2" data-name="Capa 1">
    <g>
      <path class="cls-1" d="m88.34,106.27c0,9.47-7.26,31.55-42.91,31.55-18.14,0-33.61-8.04-43.55-18.3-2.68-2.84-2.52-7.42.63-10.1,2.68-2.21,6.63-2.05,9.15.47,8.05,7.89,15.15,15.15,32.98,15.15,25.72,0,29.98-11.36,29.98-18.78C74.62,75.34.46,88.91.46,51.05.46,30.85,20.66,17.91,40.38,17.91c15.62,0,29.35,5.36,39.29,14.83,3.16,3,2.84,7.89-.47,10.41-2.68,2.05-6.63,1.89-8.99-.47-7.42-7.26-17.67-11.83-29.66-11.83-10.89,0-26.35,5.36-26.35,21.62,0,19.72,74.15,11.99,74.15,53.8"/>
      <path class="cls-1" d="m276.08,18.39v111.55c0,3.78-3.16,6.94-7.1,6.94s-6.94-3.16-6.94-6.94V18.39c0-3.94,3.16-6.94,6.94-6.94s7.1,3,7.1,6.94"/>
      <path class="cls-1" d="m362.38,68.88v-6.47c0-3.79,3.16-6.94,7.1-6.94s6.94,3.16,6.94,6.94v68.48c0,3.79-3.16,6.94-6.94,6.94s-7.1-3.15-7.1-6.94v-6.47c-5.99,8.2-15.15,13.41-27.14,13.41-22.72,0-41.18-18.46-41.18-41.18s18.46-41.18,41.18-41.18c11.99,0,21.14,5.21,27.14,13.41m0,27.77c0-14.99-12.15-27.14-27.14-27.14s-27.14,12.15-27.14,27.14,12.15,27.14,27.14,27.14,27.14-12.15,27.14-27.14"/>
      <path class="cls-1" d="m411.43,62.09v11.2c5.84-11.67,16.57-17.99,27.77-17.99,3.16,0,6.47.47,9.62,1.42,4.89,1.74,6.63,7.73,3.47,11.68-2.05,2.68-5.68,3.47-8.68,2.37-2.68-1.1-5.84-1.74-9.78-1.74-13.88,0-22.4,12.62-22.4,29.19v31.71c0,3.79-3.16,6.94-6.94,6.94s-6.94-3.16-6.94-6.94V62.09c0-3.79,3.16-6.78,6.94-6.78,1.89,0,3.63.63,4.89,1.89,1.26,1.26,2.05,3,2.05,4.89"/>
      <path class="cls-1" d="m487.47,27.85c0,5.21-4.26,9.47-9.47,9.47s-9.31-4.26-9.31-9.47,4.26-9.31,9.31-9.31,9.47,4.26,9.47,9.31m-2.52,35.5v66.74c0,3.79-3.16,6.78-6.94,6.78s-6.78-3-6.78-6.78V63.35c0-3.79,3.16-6.78,6.78-6.78s6.94,3,6.94,6.78"/>
      <path class="cls-1" d="m538.58,138.3c-8.68,0-16.41-2.21-23.51-6.47-2.84-1.89-5.52-3.94-7.73-6.31-3.31-3.63-2.05-9.47,2.52-11.36,2.68-1.11,5.68-.47,7.73,1.73,3.79,3.94,10.89,8.99,21.61,8.99,9.31,0,16.57-3.47,16.57-11.99,0-14.04-50.33-7.1-50.33-35.03,0-13.25,13.26-22.4,30.29-22.4,11.52,0,19.88,2.84,26.51,8.68,3.63,3.16,3.16,8.83-.94,11.36-2.53,1.58-5.68.95-8.21-.79-6.31-4.58-12.47-5.68-17.36-5.68-12.62,0-16.25,5.36-16.25,9.47,0,12.15,50.49,8.99,50.49,34.4,0,16.25-14.04,25.4-31.4,25.4"/>
      <path class="cls-1" d="m191.08,154.22h-43.49c-2.96,0-5.37-2.4-5.37-5.37s2.4-5.37,5.37-5.37h43.49c2.96,0,5.37,2.4,5.37,5.37s-2.4,5.37-5.37,5.37"/>
      <path class="cls-1" d="m184.95,166.5h-31.24c-2.13,0-3.85-1.72-3.85-3.85s1.72-3.85,3.85-3.85h31.24c2.13,0,3.85,1.72,3.85,3.85s-1.73,3.85-3.85,3.85"/>
      <path class="cls-1" d="m166.32,25.59V3c0-1.66,1.34-3,3-3s3,1.34,3,3v22.59c0,1.66-1.34,3-3,3s-3-1.34-3-3"/>
      <path class="cls-1" d="m141.32,32.11l-9.19-20.63c-.67-1.51,0-3.29,1.52-3.96,1.51-.67,3.29,0,3.96,1.52l9.19,20.63c.67,1.51,0,3.29-1.52,3.96-1.51.67-3.29,0-3.96-1.52"/>
      <path class="cls-1" d="m121.14,48.24l-16.79-15.11c-1.23-1.11-1.33-3.01-.22-4.24,1.11-1.23,3.01-1.33,4.24-.22l16.79,15.11c1.23,1.11,1.33,3.01.22,4.24-1.11,1.23-3.01,1.33-4.24.22"/>
      <path class="cls-1" d="m109.26,71.18l-21.48-6.98c-1.58-.51-2.44-2.2-1.93-3.78.51-1.58,2.2-2.44,3.78-1.93l21.48,6.98c1.58.51,2.44,2.2,1.93,3.78-.51,1.58-2.2,2.44-3.78,1.93"/>
      <path class="cls-1" d="m227.31,65.76l21.48-6.98c1.58-.51,3.27.35,3.78,1.93.51,1.58-.35,3.27-1.93,3.78l-21.48,6.98c-1.58.51-3.27-.35-3.78-1.93-.51-1.58.35-3.27,1.93-3.78"/>
      <path class="cls-1" d="m213.38,44l16.79-15.11c1.23-1.11,3.13-1.01,4.24.22,1.11,1.23,1.01,3.13-.22,4.24l-16.79,15.11c-1.23,1.11-3.13,1.01-4.24-.22-1.11-1.23-1.01-3.13.22-4.24"/>
      <path class="cls-1" d="m136.12,128.59c-2.03,0-4.06-.83-5.52-2.47-8.65-9.69-13.42-22.23-13.42-35.29,0-29.06,23.4-52.71,52.15-52.71s52.15,23.64,52.15,52.71c0,12.26-4.26,24.2-11.99,33.63-2.59,3.16-7.25,3.61-10.4,1.02-3.16-2.59-3.61-7.25-1.02-10.4,5.57-6.79,8.64-15.4,8.64-24.25,0-20.91-16.77-37.92-37.37-37.92s-37.37,17.01-37.37,37.92c0,9.43,3.43,18.47,9.66,25.45,2.72,3.04,2.45,7.72-.59,10.44-1.41,1.26-3.17,1.88-4.92,1.88"/>
      <path class="cls-1" d="m186.65,24.29l16.92-19.57c2.06-2.36,5.59-2.65,7.95-.59,2.35,2.06,2.65,5.59.59,7.95l-16.92,19.43c-2.06,2.35-5.59,2.65-7.95.59-2.35-1.91-2.65-5.45-.59-7.8"/>
      <path class="cls-1" d="m162.58,125.25c-1.32,0-2.49-.95-2.71-2.3-.31-1.86-1.76-6.86-8.53-12.99-4.62-4.18-12.09-13.78-10.82-23.19.5-3.66,2.61-8.8,9.85-12.45l.19-.09c6.31-2.59,13.14-1.37,18.65,3.22.02-.02.05-.04.07-.06,6.05-5.25,13.34-6.21,20-2.66,6.38,3.41,8.32,8,8.83,11.26.97,6.22-2.24,13.69-8.83,20.48-7.77,8.03-8.52,16.17-8.52,16.25-.12,1.51-1.45,2.65-2.96,2.52-1.51-.12-2.64-1.45-2.52-2.96.03-.41.92-10.2,10.05-19.63,5.29-5.46,8.04-11.37,7.34-15.81-.46-2.94-2.48-5.39-5.99-7.26-6.12-3.27-11.17-.28-13.7,1.87,3.17,4.26,4.4,9.05,2.98,12.36-1.1,2.55-3.61,3.98-6.86,3.92-3.18-.06-5.55-1.61-6.51-4.27-1.19-3.27.04-7.85,2.91-11.92-2.58-2.08-7.15-4.52-12.77-2.26-4.1,2.09-6.31,4.78-6.78,8.23-.9,6.64,4.93,14.63,9.06,18.38,7.76,7.03,9.76,13.14,10.26,16.16.25,1.5-.76,2.91-2.26,3.16-.15.03-.31.04-.46.04Zm6.74-39.44c-1.43,2.41-1.94,4.69-1.54,5.78.08.22.23.62,1.44.64,1.45.03,1.64-.44,1.7-.6.42-.98-.02-3.29-1.6-5.83Z"/>
    </g>
  </g>
</svg>