<svg width="162" height="47" viewBox="0 0 162 47" fill="none" xmlns="http://www.w3.org/2000/svg">
<g clip-path="url(#clip0_41_654)">
<path d="M25.108 29.9981C25.108 32.6713 23.0446 38.9041 12.9121 38.9041C7.75638 38.9041 3.35949 36.6346 0.534336 33.7384C-0.227375 32.9367 -0.1819 31.6438 0.713394 30.8873C1.47511 30.2635 2.59778 30.3086 3.31401 31.02C5.60199 33.2472 7.61995 35.2966 12.6876 35.2966C19.9978 35.2966 21.2085 32.0898 21.2085 29.9953C21.2085 21.2671 0.130742 25.0977 0.130742 14.4105C0.130742 8.7084 5.872 5.05566 11.4768 5.05566C15.9164 5.05566 19.8187 6.5687 22.6438 9.24191C23.542 10.0888 23.451 11.4691 22.5103 12.1805C21.7486 12.7591 20.6259 12.714 19.9551 12.0478C17.8462 9.99843 14.9329 8.7084 11.5251 8.7084C8.42998 8.7084 4.03593 10.2214 4.03593 14.8113C4.03593 20.3779 25.1109 18.1959 25.1109 29.9981" fill="#1D1D1B"/>
<path d="M78.4676 5.19116V36.6797C78.4676 37.7468 77.5695 38.6388 76.4497 38.6388C75.3298 38.6388 74.4772 37.7468 74.4772 36.6797V5.19116C74.4772 4.07896 75.3753 3.23212 76.4497 3.23212C77.524 3.23212 78.4676 4.07896 78.4676 5.19116Z" fill="#1D1D1B"/>
<path d="M102.996 19.4436V17.6172C102.996 16.5474 103.894 15.6582 105.014 15.6582C106.134 15.6582 106.986 16.5502 106.986 17.6172V36.9479C106.986 38.0178 106.088 38.907 105.014 38.907C103.939 38.907 102.996 38.0178 102.996 36.9479V35.1216C101.293 37.4363 98.6899 38.907 95.2821 38.907C88.8246 38.907 83.5779 33.696 83.5779 27.2826C83.5779 20.8691 88.8246 15.6582 95.2821 15.6582C98.6899 15.6582 101.291 17.1289 102.996 19.4436ZM102.996 27.2826C102.996 23.0512 99.5425 19.6214 95.2821 19.6214C91.0216 19.6214 87.5683 23.0512 87.5683 27.2826C87.5683 31.514 91.0216 34.9437 95.2821 34.9437C99.5425 34.9437 102.996 31.514 102.996 27.2826Z" fill="#1D1D1B"/>
<path d="M116.937 17.5269V20.6885C118.597 17.3943 121.646 15.6102 124.83 15.6102C125.728 15.6102 126.669 15.7429 127.564 16.0111C128.954 16.5022 129.448 18.1931 128.55 19.3081C127.967 20.0646 126.936 20.2876 126.083 19.9771C125.321 19.6666 124.423 19.486 123.303 19.486C119.358 19.486 116.937 23.0484 116.937 27.7258V36.677C116.937 37.7468 116.039 38.636 114.964 38.636C113.89 38.636 112.992 37.744 112.992 36.677V17.5269C112.992 16.4571 113.89 15.6131 114.964 15.6131C115.502 15.6131 115.996 15.7909 116.354 16.1466C116.712 16.5022 116.937 16.9934 116.937 17.5269Z" fill="#1D1D1B"/>
<path d="M138.549 7.86157C138.549 9.33226 137.338 10.5348 135.857 10.5348C134.377 10.5348 133.211 9.33226 133.211 7.86157C133.211 6.39088 134.422 5.23352 135.857 5.23352C137.293 5.23352 138.549 6.43604 138.549 7.86157ZM137.833 17.8826V36.7221C137.833 37.792 136.935 38.636 135.86 38.636C134.786 38.636 133.933 37.7891 133.933 36.7221V17.8826C133.933 16.8127 134.831 15.9687 135.86 15.9687C136.889 15.9687 137.833 16.8156 137.833 17.8826Z" fill="#1D1D1B"/>
<path d="M153.076 39.0397C150.608 39.0397 148.411 38.4158 146.393 37.2133C145.586 36.6798 144.825 36.1011 144.196 35.4321C143.256 34.4074 143.614 32.7589 144.913 32.2254C145.674 31.912 146.527 32.0927 147.11 32.7137C148.187 33.8259 150.205 35.2514 153.252 35.2514C155.898 35.2514 157.961 34.2719 157.961 31.8669C157.961 27.9036 143.656 29.8627 143.656 21.9785C143.656 18.2383 147.425 15.6554 152.265 15.6554C155.54 15.6554 157.916 16.4571 159.8 18.1056C160.832 18.9976 160.698 20.5982 159.533 21.3123C158.814 21.7583 157.919 21.5805 157.2 21.0893C155.406 19.7965 153.655 19.486 152.265 19.486C148.679 19.486 147.647 20.999 147.647 22.1592C147.647 25.5889 161.997 24.6969 161.997 31.8697C161.997 36.4568 158.007 39.0397 153.073 39.0397" fill="#1D1D1B"/>
<path d="M54.3088 43.5335H41.9481C41.1068 43.5335 40.4218 42.8561 40.4218 42.0177C40.4218 41.1793 41.1039 40.5018 41.9481 40.5018H54.3088C55.1501 40.5018 55.8351 41.1793 55.8351 42.0177C55.8351 42.8561 55.153 43.5335 54.3088 43.5335Z" fill="#1D1D1B"/>
<path d="M52.5666 47H43.6875C43.0821 47 42.5933 46.5145 42.5933 45.9132C42.5933 45.3119 43.0821 44.8264 43.6875 44.8264H52.5666C53.1719 44.8264 53.6608 45.3119 53.6608 45.9132C53.6608 46.5145 53.1691 47 52.5666 47Z" fill="#1D1D1B"/>
<path d="M47.2715 7.2236V0.846847C47.2715 0.378258 47.6524 0 48.1242 0C48.596 0 48.9769 0.378258 48.9769 0.846847V7.2236C48.9769 7.69219 48.596 8.07045 48.1242 8.07045C47.6524 8.07045 47.2715 7.69219 47.2715 7.2236Z" fill="#1D1D1B"/>
<path d="M40.166 9.06407L37.554 3.24059C37.3636 2.81434 37.554 2.31188 37.986 2.12275C38.4152 1.93362 38.9211 2.12275 39.1116 2.55182L41.7236 8.3753C41.914 8.80155 41.7236 9.30401 41.2915 9.49314C40.8624 9.68227 40.3565 9.49314 40.166 9.06407Z" fill="#1D1D1B"/>
<path d="M34.4305 13.6173L29.6584 9.35203C29.3088 9.0387 29.2804 8.50236 29.5959 8.15515C29.9114 7.80795 30.4514 7.77972 30.801 8.09305L35.573 12.3583C35.9226 12.6717 35.9511 13.208 35.6356 13.5552C35.3201 13.9024 34.7801 13.9307 34.4305 13.6173Z" fill="#1D1D1B"/>
<path d="M31.0539 20.0929L24.9489 18.1225C24.4998 17.9786 24.2554 17.5015 24.4003 17.0555C24.5453 16.6095 25.0256 16.3667 25.4747 16.5107L31.5797 18.481C32.0288 18.625 32.2732 19.1021 32.1283 19.5481C31.9833 19.9941 31.503 20.2368 31.0539 20.0929Z" fill="#1D1D1B"/>
<path d="M64.6062 18.5629L70.7112 16.5926C71.1603 16.4486 71.6406 16.6913 71.7856 17.1374C71.9305 17.5834 71.6861 18.0604 71.237 18.2044L65.132 20.1747C64.6829 20.3187 64.2026 20.0759 64.0576 19.6299C63.9127 19.1839 64.1571 18.7068 64.6062 18.5629Z" fill="#1D1D1B"/>
<path d="M60.6469 12.4204L65.419 8.15513C65.7686 7.84179 66.3086 7.87002 66.6241 8.21723C66.9396 8.56444 66.9112 9.10077 66.5616 9.4141L61.7895 13.6794C61.4399 13.9927 60.8999 13.9645 60.5844 13.6173C60.2689 13.2701 60.2974 12.7337 60.6469 12.4204Z" fill="#1D1D1B"/>
<path d="M38.6881 36.2987C38.1111 36.2987 37.5341 36.0644 37.1192 35.6015C34.6607 32.8661 33.3049 29.3263 33.3049 25.6397C33.3049 17.4366 39.9557 10.7606 48.127 10.7606C56.2984 10.7606 62.9491 17.4338 62.9491 25.6397C62.9491 29.1005 61.7384 32.471 59.5413 35.1329C58.8052 36.0249 57.4807 36.1519 56.5854 35.4208C55.6873 34.6897 55.5594 33.3743 56.2955 32.4851C57.8786 30.5684 58.7512 28.1379 58.7512 25.6397C58.7512 19.7372 53.9848 14.9356 48.1299 14.9356C42.2749 14.9356 37.5086 19.7372 37.5086 25.6397C37.5086 28.3016 38.4834 30.8535 40.2541 32.8238C41.0272 33.6819 40.9505 35.003 40.0864 35.7708C39.6857 36.1265 39.1855 36.3015 38.6881 36.3015" fill="#F0811B"/>
<path d="M53.0498 6.85666L57.8588 1.33239C58.4443 0.666208 59.4476 0.584346 60.1183 1.16585C60.7863 1.74735 60.8715 2.74381 60.286 3.40999L55.477 8.89474C54.8915 9.5581 53.8882 9.64279 53.2175 9.06128C52.5495 8.52212 52.4643 7.52285 53.0498 6.85948" fill="#F0811B"/>
<path d="M46.2086 35.3559C45.8334 35.3559 45.5008 35.0877 45.4383 34.7066C45.3502 34.1816 44.9381 32.7701 43.0139 31.0398C41.7008 29.8598 39.5777 27.1499 39.9387 24.4936C40.0808 23.4605 40.6805 22.0095 42.7382 20.9792L42.7922 20.9538C44.5857 20.2227 46.5269 20.5671 48.0929 21.8628C48.0986 21.8571 48.1071 21.8515 48.1128 21.8458C49.8324 20.3638 51.9043 20.0928 53.7972 21.0949C55.6106 22.0575 56.162 23.3532 56.3069 24.2734C56.5826 26.0292 55.6703 28.1379 53.7972 30.0546C51.5888 32.3213 51.3757 34.6191 51.3757 34.6417C51.3416 35.0679 50.9636 35.3897 50.5344 35.353C50.1052 35.3192 49.784 34.9437 49.8182 34.5175C49.8267 34.4017 50.0796 31.6382 52.6746 28.9763C54.1781 27.435 54.9597 25.7667 54.7607 24.5134C54.63 23.6835 54.0559 22.9919 53.0583 22.464C51.3188 21.541 49.8835 22.385 49.1644 22.9919C50.0654 24.1944 50.415 25.5465 50.0114 26.4809C49.6988 27.2007 48.9854 27.6044 48.0617 27.5874C47.1579 27.5705 46.4842 27.133 46.2114 26.3821C45.8732 25.459 46.2228 24.1662 47.0385 23.0173C46.3052 22.4301 45.0063 21.7414 43.409 22.3793C42.2437 22.9693 41.6156 23.7286 41.482 24.7025C41.2262 26.5769 42.8832 28.8323 44.057 29.8909C46.2626 31.8753 46.831 33.6001 46.9731 34.4525C47.0442 34.876 46.7571 35.274 46.3308 35.3446C46.2881 35.353 46.2427 35.3559 46.2 35.3559H46.2086ZM48.1242 24.2226C47.7178 24.9029 47.5728 25.5465 47.6865 25.8542C47.7092 25.9163 47.7519 26.0292 48.0958 26.0349C48.5079 26.0434 48.5619 25.9107 48.579 25.8655C48.6983 25.5889 48.5733 24.9368 48.1242 24.2198V24.2226Z" fill="#F08320"/>
</g>
<defs>
<clipPath id="clip0_41_654">
<rect width="162" height="47" fill="white"/>
</clipPath>
</defs>
</svg>
